<svg id="visual" viewBox="0 0 900 600" width="900" height="600" xmlns="http://www.w3.org/2000/svg" xmlns:xlink="http://www.w3.org/1999/xlink" version="1.1"><path d="M0 427L69 427L69 469L138 469L138 455L208 455L208 457L277 457L277 479L346 479L346 455L415 455L415 416L485 416L485 458L554 458L554 452L623 452L623 449L692 449L692 429L762 429L762 480L831 480L831 423L900 423L900 464L900 601L900 601L831 601L831 601L762 601L762 601L692 601L692 601L623 601L623 601L554 601L554 601L485 601L485 601L415 601L415 601L346 601L346 601L277 601L277 601L208 601L208 601L138 601L138 601L69 601L69 601L0 601Z" fill="#9900ff"></path><path d="M0 509L69 509L69 492L138 492L138 508L208 508L208 481L277 481L277 510L346 510L346 522L415 522L415 497L485 497L485 489L554 489L554 496L623 496L623 520L692 520L692 482L762 482L762 495L831 495L831 469L900 469L900 484L900 601L900 601L831 601L831 601L762 601L762 601L692 601L692 601L623 601L623 601L554 601L554 601L485 601L485 601L415 601L415 601L346 601L346 601L277 601L277 601L208 601L208 601L138 601L138 601L69 601L69 601L0 601Z" fill="#7700c6"></path><path d="M0 549L69 549L69 521L138 521L138 557L208 557L208 555L277 555L277 519L346 519L346 559L415 559L415 526L485 526L485 520L554 520L554 536L623 536L623 541L692 541L692 536L762 536L762 533L831 533L831 553L900 553L900 528L900 601L900 601L831 601L831 601L762 601L762 601L692 601L692 601L623 601L623 601L554 601L554 601L485 601L485 601L415 601L415 601L346 601L346 601L277 601L277 601L208 601L208 601L138 601L138 601L69 601L69 601L0 601Z" fill="#560090"></path></svg>