<?xml version="1.0" standalone="no"?>
<!DOCTYPE svg PUBLIC "-//W3C//DTD SVG 20010904//EN"
 "http://www.w3.org/TR/2001/REC-SVG-20010904/DTD/svg10.dtd">
<svg version="1.0" xmlns="http://www.w3.org/2000/svg"
 width="1024.000000pt" height="524.000000pt" viewBox="0 0 1024.000000 524.000000"
 preserveAspectRatio="xMidYMid meet">

<g transform="translate(0.000000,524.000000) scale(0.100000,-0.100000)"
fill="#000000" stroke="none">
<path d="M62 5055 c-5 -576 93 -1265 263 -1855 161 -554 382 -1108 626 -1562
322 -601 671 -1065 1134 -1507 216 -207 174 -149 -61 85 -225 223 -343 355
-504 563 -400 517 -739 1149 -998 1861 -296 814 -428 1498 -451 2345 l-8 260
-1 -190z"/>
<path d="M142 5095 c-6 -557 96 -1248 273 -1851 295 -1005 770 -1922 1343
-2593 214 -250 638 -661 672 -649 5 1 -41 47 -104 100 -159 137 -397 377 -544
548 -448 522 -797 1113 -1096 1857 -343 853 -503 1608 -535 2513 -8 216 -8
219 -9 75z"/>
<path d="M222 5130 c-5 -316 49 -827 129 -1225 182 -903 590 -1891 1081 -2623
222 -329 446 -599 725 -873 213 -209 452 -414 474 -407 6 2 -18 26 -52 53
-212 166 -534 475 -715 685 -536 621 -961 1399 -1274 2330 -208 618 -318 1201
-350 1840 -6 124 -12 250 -13 280 -2 30 -4 3 -5 -60z"/>
<path d="M306 5065 c27 -959 277 -1923 754 -2901 314 -644 675 -1159 1130
-1615 226 -226 621 -557 652 -547 6 2 -4 15 -23 28 -19 13 -110 85 -204 159
-212 168 -599 551 -766 757 -435 538 -756 1101 -1044 1834 -298 755 -448 1442
-485 2210 -13 277 -21 318 -14 75z"/>
<path d="M380 5204 c0 -66 19 -362 30 -479 61 -620 217 -1253 465 -1875 486
-1224 1129 -2092 2040 -2755 72 -52 137 -95 145 -94 10 0 6 6 -10 17 -102 71
-397 298 -495 383 -794 683 -1396 1628 -1811 2844 -200 584 -310 1162 -344
1794 -6 107 -12 197 -15 199 -3 3 -5 -12 -5 -34z"/>
<path d="M464 5165 c3 -44 8 -127 11 -185 20 -339 101 -842 191 -1180 154
-577 404 -1204 684 -1715 402 -735 884 -1309 1491 -1777 169 -130 432 -308
455 -308 10 0 -53 47 -138 104 -183 122 -238 162 -373 270 -817 653 -1414
1511 -1860 2671 -188 487 -310 946 -385 1438 -26 178 -60 536 -60 646 0 47 -5
93 -11 101 -7 11 -9 -8 -5 -65z"/>
<path d="M548 5173 c13 -333 73 -766 158 -1133 174 -752 539 -1613 963 -2270
115 -180 327 -466 439 -595 271 -311 546 -570 847 -797 205 -154 555 -378 591
-378 10 0 -47 40 -127 88 -1136 692 -1907 1681 -2457 3152 -229 611 -368 1266
-399 1872 -3 70 -9 128 -12 128 -3 0 -5 -30 -3 -67z"/>
<path d="M636 5130 c7 -159 38 -432 74 -640 80 -464 195 -867 376 -1322 513
-1293 1205 -2201 2172 -2850 206 -138 523 -321 548 -316 8 2 -34 30 -93 62
-1221 673 -2032 1639 -2620 3121 -233 587 -383 1203 -434 1780 -6 72 -15 164
-19 205 -8 64 -8 59 -4 -40z"/>
<path d="M716 5165 c42 -628 193 -1275 444 -1904 368 -921 811 -1623 1385
-2196 261 -261 489 -447 810 -658 253 -166 691 -408 739 -407 12 1 -23 23 -79
51 -963 485 -1619 1061 -2177 1914 -458 699 -837 1607 -998 2392 -48 233 -108
661 -111 793 -1 25 -5 56 -10 70 -5 16 -6 -5 -3 -55z"/>
<path d="M802 5197 c-4 -111 50 -499 108 -782 166 -806 574 -1757 1058 -2465
398 -584 852 -1036 1422 -1417 291 -195 950 -540 1013 -531 14 2 2 10 -39 27
-98 40 -520 253 -664 335 -928 534 -1607 1267 -2142 2313 -351 686 -573 1333
-683 1990 -21 122 -45 319 -68 543 -3 28 -4 26 -5 -13z"/>
<path d="M885 5175 c77 -820 311 -1586 739 -2420 532 -1038 1216 -1775 2131
-2297 313 -179 910 -458 978 -458 12 0 -72 41 -186 90 -975 418 -1620 877
-2181 1552 -284 342 -525 717 -756 1173 -401 793 -624 1513 -705 2281 -7 75
-17 139 -20 143 -4 3 -4 -25 0 -64z"/>
<path d="M976 5160 c11 -191 70 -523 144 -821 180 -719 570 -1578 999 -2199
592 -857 1289 -1426 2291 -1871 270 -119 647 -269 678 -269 15 0 -94 49 -243
109 -454 181 -693 292 -985 455 -1075 601 -1829 1491 -2412 2851 -235 546
-371 1043 -454 1655 -16 119 -22 148 -18 90z"/>
<path d="M1055 5200 c34 -285 100 -633 166 -877 207 -761 627 -1627 1094
-2258 605 -816 1320 -1350 2395 -1785 283 -115 735 -281 755 -278 11 2 -92 45
-230 96 -497 186 -770 300 -1060 443 -894 439 -1567 1053 -2117 1930 -291 463
-588 1097 -747 1593 -102 318 -199 756 -232 1041 -7 61 -16 117 -21 125 -5 9
-6 -2 -3 -30z"/>
<path d="M1145 5180 c12 -113 64 -406 100 -560 112 -491 276 -932 542 -1465
540 -1079 1212 -1828 2103 -2342 365 -211 742 -376 1405 -616 160 -58 345
-126 413 -151 68 -25 133 -46 145 -46 31 1 -51 34 -403 161 -698 253 -924 346
-1275 521 -1013 507 -1761 1277 -2341 2413 -366 716 -567 1320 -664 1990 -22
153 -38 213 -25 95z"/>
<path d="M1231 5215 c-1 -44 44 -306 85 -490 111 -500 273 -937 555 -1495 357
-709 766 -1264 1270 -1720 327 -297 691 -541 1124 -755 315 -155 578 -260
1138 -456 374 -131 649 -233 746 -275 63 -28 115 -34 66 -7 -53 29 -373 148
-750 281 -862 302 -1230 465 -1670 740 -775 483 -1402 1198 -1891 2157 -350
685 -522 1186 -639 1860 -18 105 -34 177 -34 160z"/>
<path d="M1315 5218 c2 -13 16 -90 30 -173 116 -687 408 -1436 848 -2175 501
-843 1143 -1474 1934 -1904 369 -201 681 -327 1483 -599 437 -149 620 -217
820 -307 153 -68 205 -80 85 -18 -161 82 -526 221 -940 358 -879 290 -1375
512 -1840 823 -561 376 -1064 907 -1469 1555 -301 482 -582 1078 -733 1557
-82 260 -179 671 -199 848 -4 31 -11 57 -16 57 -4 0 -6 -10 -3 -22z"/>
<path d="M1404 5218 c3 -12 10 -52 16 -88 80 -479 243 -978 484 -1486 592
-1250 1350 -2088 2362 -2611 349 -180 616 -285 1350 -529 663 -220 824 -281
1085 -411 187 -93 266 -123 154 -57 -244 142 -500 244 -1150 459 -692 229
-890 302 -1195 440 -1088 492 -1891 1308 -2515 2555 -216 432 -351 775 -455
1160 -42 155 -104 441 -116 528 -4 29 -11 55 -16 58 -5 3 -6 -5 -4 -18z"/>
<path d="M1494 5220 c3 -14 15 -74 26 -135 138 -720 480 -1517 965 -2255 474
-720 1067 -1275 1752 -1642 406 -218 748 -351 1523 -593 201 -63 419 -133 485
-155 328 -113 634 -253 827 -379 54 -34 103 -61 109 -59 20 7 -196 139 -366
224 -93 46 -226 106 -295 134 -131 52 -555 193 -993 330 -757 236 -1269 470
-1725 787 -613 427 -1119 1003 -1557 1773 -102 178 -277 527 -358 710 -154
351 -287 778 -357 1145 -13 66 -27 125 -32 130 -6 6 -7 0 -4 -15z"/>
<path d="M1585 5218 c2 -13 19 -88 36 -168 64 -299 177 -652 307 -959 83 -198
302 -631 417 -826 631 -1073 1396 -1766 2422 -2194 279 -116 552 -208 1123
-380 586 -176 843 -270 1090 -399 126 -65 280 -164 373 -239 37 -30 72 -53 78
-51 6 2 -18 27 -54 55 -115 94 -288 203 -441 278 -273 134 -467 203 -1116 399
-476 143 -704 219 -939 312 -832 331 -1464 795 -2011 1477 -499 623 -948 1479
-1154 2204 -48 167 -116 457 -116 493 0 11 -5 20 -10 20 -6 0 -8 -10 -5 -22z"/>
<path d="M1692 5148 c83 -384 225 -803 392 -1153 350 -734 728 -1299 1181
-1764 553 -568 1170 -939 2040 -1227 121 -40 401 -125 623 -188 601 -173 854
-259 1097 -376 200 -97 401 -232 546 -368 94 -88 116 -95 34 -11 -84 85 -183
165 -300 242 -289 188 -585 306 -1250 497 -649 186 -874 258 -1175 380 -982
396 -1712 1020 -2330 1990 -287 451 -575 1052 -714 1490 -48 151 -146 527
-146 561 0 10 -4 19 -9 19 -5 0 0 -42 11 -92z"/>
<path d="M1770 5224 c0 -38 92 -374 152 -554 82 -249 166 -450 303 -725 637
-1282 1446 -2118 2507 -2591 345 -154 666 -261 1283 -429 762 -207 1062 -318
1349 -497 166 -104 374 -282 451 -387 28 -38 45 -51 45 -33 -1 15 -137 163
-215 232 -208 186 -461 330 -805 458 -74 27 -151 54 -170 60 -19 6 -87 26
-150 45 -63 20 -281 81 -485 137 -557 153 -806 232 -1097 349 -1093 436 -1897
1187 -2558 2387 -97 174 -245 479 -315 644 -78 184 -195 539 -246 745 -42 171
-49 194 -49 159z"/>
<path d="M1861 5235 c-2 -24 84 -333 133 -480 125 -371 274 -696 514 -1115
502 -877 1106 -1518 1837 -1949 136 -81 404 -212 581 -286 311 -130 605 -221
1283 -400 714 -188 973 -282 1264 -462 189 -117 398 -310 512 -471 48 -68 86
-102 50 -44 -117 185 -341 400 -552 531 -297 184 -596 292 -1343 486 -722 187
-1081 308 -1476 500 -459 222 -831 486 -1197 848 -442 438 -804 951 -1142
1622 -201 398 -308 671 -405 1035 -40 149 -58 206 -59 185z"/>
<path d="M1981 5128 c90 -336 219 -667 394 -1013 435 -860 938 -1507 1545
-1986 435 -344 952 -607 1555 -792 227 -70 364 -107 785 -212 640 -160 897
-243 1151 -370 316 -160 586 -405 755 -687 45 -76 43 -73 50 -66 3 4 -14 37
-37 75 -285 455 -665 716 -1339 917 -85 25 -328 89 -540 141 -475 119 -691
178 -930 257 -922 303 -1615 779 -2217 1525 -528 653 -986 1532 -1164 2231
-13 50 -27 92 -31 92 -3 0 7 -51 23 -112z"/>
<path d="M2050 5236 c0 -21 84 -297 131 -429 221 -616 642 -1339 1098 -1887
129 -154 384 -414 541 -551 295 -256 576 -442 925 -614 408 -200 793 -329
1435 -480 734 -173 998 -249 1244 -360 422 -191 731 -483 917 -868 13 -26 27
-47 31 -47 15 0 -79 174 -151 282 -171 255 -405 460 -690 602 -256 129 -523
215 -1056 341 -828 196 -1102 277 -1485 438 -1016 426 -1809 1201 -2459 2404
-191 354 -331 688 -426 1018 -35 120 -54 173 -55 151z"/>
<path d="M2150 5228 c0 -21 59 -212 112 -358 191 -528 584 -1221 967 -1705
190 -240 470 -534 681 -715 416 -357 909 -636 1459 -824 286 -98 526 -161
1111 -292 662 -147 930 -231 1199 -375 351 -187 580 -431 767 -814 40 -82 73
-145 74 -139 0 17 -25 75 -85 195 -235 470 -585 757 -1160 948 -215 71 -386
115 -840 216 -824 184 -1200 303 -1630 518 -386 192 -640 365 -971 658 -502
446 -994 1120 -1354 1854 -110 224 -174 383 -261 645 -37 113 -68 197 -69 188z"/>
<path d="M2240 5237 c0 -15 119 -351 160 -452 210 -518 603 -1169 983 -1625
467 -562 981 -965 1578 -1240 431 -199 787 -304 1624 -480 517 -109 742 -168
965 -257 387 -153 648 -356 852 -663 75 -113 169 -299 212 -419 29 -81 45
-114 46 -93 0 19 -87 236 -126 314 -273 543 -673 829 -1432 1022 -99 25 -299
71 -444 101 -551 116 -766 167 -1031 246 -1116 332 -1932 962 -2642 2037 -311
471 -560 973 -692 1389 -21 68 -41 123 -45 123 -5 0 -8 -1 -8 -3z"/>
<path d="M2340 5238 c0 -3 18 -58 40 -121 217 -631 642 -1356 1126 -1922 618
-723 1331 -1180 2241 -1435 233 -66 404 -104 908 -206 508 -102 695 -148 905
-219 171 -58 408 -175 530 -262 122 -87 286 -251 373 -373 92 -130 211 -372
272 -553 27 -82 51 -144 53 -138 7 21 -91 290 -154 421 -191 397 -469 669
-864 845 -249 110 -484 173 -1141 305 -886 177 -1266 293 -1737 529 -698 350
-1304 912 -1822 1691 -185 277 -348 560 -465 803 -74 155 -185 426 -225 552
-19 60 -40 103 -40 83z"/>
<path d="M2445 5220 c14 -49 119 -317 162 -415 201 -456 585 -1059 945 -1487
140 -166 437 -464 588 -589 592 -491 1201 -774 2076 -963 89 -19 298 -60 465
-91 757 -139 976 -198 1264 -339 187 -92 300 -171 435 -306 209 -207 349 -449
459 -794 21 -66 44 -147 51 -178 7 -32 17 -58 21 -58 10 0 -41 189 -91 335
-176 511 -500 869 -960 1064 -246 104 -483 166 -990 261 -638 119 -847 165
-1124 245 -991 287 -1747 825 -2417 1720 -358 478 -668 1033 -834 1495 -21 58
-42 110 -48 115 -6 6 -7 1 -2 -15z"/>
<path d="M2540 5236 c0 -3 32 -85 71 -183 251 -629 736 -1368 1235 -1882 380
-391 735 -656 1173 -875 494 -248 913 -369 1801 -521 548 -94 766 -143 1005
-225 483 -167 807 -463 1008 -923 62 -143 103 -265 153 -462 23 -93 43 -161
43 -150 2 57 -90 386 -151 540 -194 490 -502 803 -968 984 -259 100 -455 147
-1035 247 -763 131 -1103 216 -1510 375 -841 329 -1544 923 -2147 1814 -268
395 -466 756 -598 1091 -33 83 -60 157 -60 163 0 6 -4 11 -10 11 -5 0 -10 -2
-10 -4z"/>
<path d="M2661 5188 c146 -371 289 -638 564 -1053 625 -943 1324 -1544 2195
-1888 409 -162 757 -246 1514 -367 571 -92 778 -136 1006 -215 536 -185 873
-539 1063 -1115 45 -137 111 -401 123 -497 4 -29 11 -53 16 -53 5 0 7 8 4 18
-2 9 -12 57 -21 107 -9 50 -29 142 -45 205 -177 711 -503 1113 -1080 1333
-231 88 -475 143 -1065 237 -687 110 -1033 190 -1395 322 -606 221 -1083 530
-1566 1012 -357 357 -648 738 -941 1231 -143 241 -312 585 -362 738 -7 20 -17
37 -22 37 -5 0 1 -24 12 -52z"/>
<path d="M2750 5234 c0 -22 123 -293 195 -430 328 -627 834 -1282 1315 -1705
286 -251 641 -487 958 -636 463 -217 899 -337 1632 -448 531 -80 642 -98 787
-126 991 -193 1410 -668 1597 -1809 7 -47 14 -71 15 -55 2 45 -45 301 -81 445
-182 731 -528 1137 -1145 1340 -235 77 -438 118 -968 195 -805 118 -1167 203
-1600 377 -850 342 -1556 955 -2170 1883 -213 322 -374 612 -475 855 -43 102
-60 135 -60 114z"/>
<path d="M2861 5213 c37 -99 198 -415 285 -559 81 -136 307 -474 401 -599 551
-738 1158 -1242 1865 -1547 409 -177 860 -293 1468 -377 118 -17 332 -47 475
-66 597 -83 900 -170 1163 -333 446 -277 691 -748 806 -1551 14 -96 28 -177
31 -180 8 -7 0 62 -31 261 -90 600 -272 1020 -563 1301 -119 115 -202 174
-356 252 -255 129 -566 208 -1115 280 -622 83 -892 128 -1182 201 -1063 265
-1878 843 -2608 1849 -248 342 -506 781 -610 1038 -23 56 -49 83 -29 30z"/>
<path d="M2960 5234 c0 -3 25 -58 55 -122 157 -331 433 -758 719 -1117 646
-809 1364 -1310 2243 -1564 324 -94 619 -148 1209 -221 798 -98 1055 -157
1344 -306 275 -143 490 -371 634 -676 127 -265 222 -638 266 -1043 18 -163 21
-187 27 -182 15 15 -46 450 -93 662 -165 741 -494 1163 -1064 1360 -238 82
-457 124 -1035 195 -690 86 -979 139 -1335 245 -1018 304 -1845 972 -2566
2069 -144 220 -226 361 -315 544 -72 145 -89 175 -89 156z"/>
<path d="M3070 5234 c0 -14 135 -273 196 -376 181 -306 460 -691 697 -963 117
-134 346 -363 485 -485 553 -488 1171 -797 1902 -953 285 -61 500 -92 1041
-151 642 -71 919 -129 1172 -245 307 -142 516 -351 677 -676 117 -239 188
-475 244 -815 26 -156 55 -413 57 -492 0 -24 5 -52 10 -63 18 -39 -22 360 -57
572 -138 840 -455 1315 -1023 1534 -245 94 -492 141 -1114 209 -393 43 -597
70 -771 101 -835 148 -1445 425 -2066 937 -154 128 -467 444 -616 622 -304
364 -601 803 -763 1128 -54 108 -71 136 -71 116z"/>
<path d="M3180 5235 c0 -27 182 -344 293 -510 674 -1011 1414 -1646 2312
-1984 430 -162 851 -244 1655 -321 524 -50 699 -75 927 -135 338 -88 584 -235
768 -456 285 -342 437 -850 499 -1664 8 -99 14 -143 15 -105 1 86 -25 378 -50
560 -120 860 -419 1361 -951 1591 -260 113 -530 165 -1198 229 -787 76 -1143
142 -1579 292 -330 114 -591 245 -906 454 -511 339 -972 812 -1405 1438 -125
182 -215 327 -298 479 -68 125 -82 147 -82 132z"/>
<path d="M3290 5237 c0 -9 102 -190 150 -267 141 -226 373 -546 543 -750 662
-791 1389 -1273 2262 -1501 381 -99 623 -133 1455 -204 443 -38 680 -77 895
-146 698 -222 1023 -798 1120 -1984 8 -99 15 -216 16 -260 0 -44 5 -91 9 -105
6 -15 7 16 4 80 -58 1244 -327 1895 -900 2187 -286 145 -542 198 -1244 258
-846 71 -1168 126 -1617 274 -945 312 -1736 967 -2442 2023 -99 149 -231 371
-231 390 0 5 -4 8 -10 8 -5 0 -10 -2 -10 -3z"/>
<path d="M3426 5193 c213 -372 565 -837 877 -1160 542 -560 1089 -917 1737
-1131 449 -149 804 -207 1645 -267 624 -45 865 -84 1110 -177 187 -72 314
-155 456 -297 120 -121 186 -215 269 -386 161 -331 256 -781 290 -1370 7 -104
15 -239 20 -300 8 -99 8 -94 4 55 -6 212 -20 413 -44 620 -104 899 -383 1417
-891 1654 -262 122 -536 173 -1199 221 -574 42 -769 62 -1040 111 -1138 205
-2007 771 -2817 1834 -124 163 -292 409 -373 548 -30 50 -58 92 -63 92 -4 0 4
-21 19 -47z"/>
<path d="M3520 5235 c0 -23 216 -341 363 -535 768 -1010 1598 -1581 2632
-1810 335 -74 646 -109 1275 -145 684 -39 973 -91 1240 -225 224 -113 378
-257 514 -481 197 -326 319 -844 356 -1519 6 -113 15 -277 20 -365 8 -155 9
-153 4 60 -22 1038 -197 1699 -547 2071 -210 223 -466 345 -869 414 -150 25
-381 46 -788 70 -538 32 -788 59 -1085 116 -1098 212 -1971 800 -2765 1859
-132 176 -260 362 -308 446 -23 42 -42 62 -42 44z"/>
<path d="M3640 5235 c0 -23 238 -357 395 -555 771 -970 1636 -1523 2680 -1715
301 -55 598 -83 1180 -110 592 -28 813 -57 1064 -141 574 -191 875 -682 990
-1612 28 -219 41 -406 55 -782 9 -214 14 -281 14 -195 1 72 -3 231 -8 355 -33
740 -119 1197 -295 1567 -201 422 -493 646 -971 747 -210 43 -433 64 -939 86
-526 23 -867 59 -1186 125 -1021 211 -1858 771 -2631 1760 -107 137 -229 308
-288 402 -39 63 -60 86 -60 68z"/>
<path d="M3760 5235 c0 -8 140 -205 224 -315 190 -251 371 -456 585 -669 739
-731 1531 -1115 2536 -1231 231 -26 413 -38 785 -50 690 -23 948 -53 1199
-142 605 -214 898 -783 981 -1908 8 -115 24 -507 33 -835 2 -50 4 -20 5 65 6
466 -39 1051 -108 1410 -122 637 -355 1017 -746 1217 -254 130 -530 180 -1104
203 -746 29 -926 41 -1200 81 -825 120 -1521 443 -2153 999 -212 187 -517 510
-708 750 -72 90 -256 338 -285 384 -25 39 -44 57 -44 41z"/>
<path d="M3900 5209 c66 -95 216 -287 313 -404 711 -852 1465 -1357 2352
-1575 403 -99 723 -133 1415 -150 223 -5 457 -12 520 -15 282 -15 526 -56 699
-117 489 -172 766 -588 895 -1343 51 -298 71 -548 86 -1070 16 -539 18 -563
14 -180 -9 847 -69 1337 -214 1760 -198 574 -542 856 -1145 939 -182 25 -368
35 -825 46 -239 6 -498 15 -575 20 -724 52 -1290 209 -1820 504 -374 208 -659
429 -1010 780 -240 240 -390 413 -590 676 -64 85 -122 157 -128 159 -6 2 0
-11 13 -30z"/>
<path d="M4019 5223 c14 -27 261 -333 360 -448 119 -138 413 -431 551 -549
623 -534 1281 -843 2053 -965 311 -50 480 -60 1122 -71 730 -12 922 -30 1166
-110 200 -66 337 -149 467 -284 255 -266 399 -656 483 -1306 16 -127 18 -134
13 -54 -6 112 -44 363 -79 520 -77 341 -210 632 -378 827 -112 131 -307 255
-495 316 -249 81 -559 110 -1157 111 -323 0 -643 13 -865 36 -1123 113 -2005
582 -2837 1508 -114 126 -340 402 -379 461 -19 29 -40 35 -25 8z"/>
<path d="M4140 5235 c0 -5 168 -211 258 -315 122 -141 317 -344 447 -463 700
-645 1437 -998 2320 -1111 252 -32 380 -38 1050 -46 695 -9 783 -13 975 -50
545 -103 845 -418 1020 -1067 15 -59 29 -99 29 -87 1 11 -15 78 -34 149 -85
308 -206 537 -375 706 -163 163 -337 254 -594 311 -202 44 -291 49 -1021 58
-385 5 -718 11 -740 14 -22 3 -94 10 -160 16 -962 87 -1783 471 -2520 1179
-208 200 -467 485 -598 658 -34 46 -57 65 -57 48z"/>
<path d="M4311 5188 c203 -248 559 -613 759 -779 302 -250 544 -411 855 -569
432 -220 880 -348 1420 -406 130 -14 308 -18 965 -24 868 -8 893 -9 1108 -65
380 -100 623 -329 793 -746 17 -42 28 -60 25 -42 -10 58 -102 250 -169 350
-177 266 -406 412 -754 482 -197 39 -301 44 -968 42 -664 -2 -835 4 -1125 40
-1087 135 -1986 658 -2829 1647 -57 67 -108 122 -113 122 -6 0 10 -24 33 -52z"/>
<path d="M4423 5220 c8 -12 62 -74 120 -138 760 -847 1576 -1333 2517 -1497
361 -62 724 -82 1257 -66 651 19 877 13 1106 -30 113 -21 248 -64 332 -106
185 -93 347 -253 451 -447 19 -33 34 -53 34 -44 0 23 -61 127 -127 214 -173
232 -423 366 -783 421 -125 19 -405 22 -1250 14 -428 -5 -554 1 -825 35 -946
119 -1764 549 -2516 1322 -85 87 -190 199 -233 250 -44 51 -84 92 -89 92 -4 0
-2 -9 6 -20z"/>
<path d="M4572 5208 c39 -56 437 -449 558 -552 623 -532 1277 -849 2000 -970
401 -67 766 -80 1440 -51 535 23 752 18 975 -25 283 -55 498 -181 651 -383 49
-65 61 -60 15 6 -47 69 -161 177 -241 230 -129 84 -258 135 -429 167 -230 43
-438 49 -986 25 -402 -17 -725 -19 -937 -5 -616 42 -1099 171 -1603 429 -224
114 -399 224 -607 378 -250 187 -489 402 -708 638 -130 139 -177 181 -128 113z"/>
<path d="M4760 5163 c233 -245 516 -494 762 -670 624 -448 1264 -683 2048
-754 198 -18 696 -15 1050 6 364 22 787 25 915 7 277 -39 461 -114 628 -256
89 -77 105 -73 20 4 -160 147 -339 225 -608 266 -159 24 -552 24 -960 0 -561
-34 -1031 -22 -1385 35 -881 140 -1659 565 -2395 1308 -139 141 -197 182 -75
54z"/>
<path d="M4975 5102 c610 -597 1277 -983 1999 -1157 195 -47 406 -80 636 -100
246 -22 731 -16 1155 14 663 46 895 37 1155 -44 92 -29 211 -89 271 -135 39
-31 49 -36 49 -21 0 15 -118 91 -203 131 -95 45 -230 82 -367 101 -142 20
-549 15 -905 -10 -839 -61 -1368 -30 -1887 110 -688 185 -1292 546 -1916 1143
-60 58 -114 106 -118 106 -5 -1 54 -62 131 -138z"/>
<path d="M5006 5219 c33 -37 274 -250 384 -340 550 -447 1147 -736 1785 -865
345 -69 730 -95 1147 -76 150 7 379 21 508 32 783 63 1059 46 1324 -84 47 -23
86 -37 86 -31 0 15 -155 88 -241 113 -36 11 -114 28 -175 38 -140 24 -512 24
-801 0 -112 -9 -294 -23 -405 -32 -251 -21 -818 -24 -993 -5 -967 100 -1736
460 -2515 1175 -57 53 -108 96 -114 96 -5 0 -1 -10 10 -21z"/>
<path d="M5215 5174 c179 -167 464 -383 696 -528 722 -451 1492 -645 2402
-606 243 10 365 19 702 50 491 45 736 49 935 16 93 -15 219 -50 263 -72 22
-12 27 -12 27 -1 0 8 -32 24 -77 40 -117 39 -147 46 -283 62 -210 25 -370 20
-930 -30 -438 -39 -557 -45 -853 -45 -412 0 -712 33 -1042 116 -651 164 -1222
478 -1815 998 -97 85 -116 85 -25 0z"/>
<path d="M5310 5236 c0 -8 167 -144 295 -241 400 -304 806 -519 1247 -664 391
-127 717 -179 1183 -188 317 -6 504 3 945 48 719 73 936 77 1176 19 73 -17 96
-18 82 -4 -14 13 -158 43 -261 55 -162 18 -455 6 -857 -35 -590 -60 -608 -61
-985 -61 -285 0 -390 4 -505 18 -670 83 -1230 292 -1794 669 -132 88 -332 239
-438 330 -58 50 -88 69 -88 54z"/>
<path d="M5510 5209 c61 -53 251 -193 361 -267 743 -500 1507 -720 2419 -699
296 7 359 12 895 73 465 53 795 67 960 41 86 -14 105 -14 92 -1 -16 17 -101
26 -280 31 -223 6 -323 -1 -827 -57 -535 -60 -608 -65 -960 -64 -349 0 -491
11 -760 60 -524 96 -1010 293 -1485 602 -131 85 -382 269 -405 297 -7 8 -20
15 -29 15 -11 -1 -5 -10 19 -31z"/>
<path d="M5735 5174 c551 -407 1145 -668 1758 -774 248 -42 408 -54 727 -54
345 0 478 10 1030 79 541 67 728 81 898 67 61 -5 91 -4 89 3 -6 16 -151 26
-297 20 -165 -7 -341 -25 -695 -70 -148 -19 -337 -41 -420 -50 -1131 -118
-2005 80 -2874 652 -79 52 -173 117 -209 144 -36 27 -72 49 -81 49 -8 0 25
-30 74 -66z"/>
<path d="M5840 5235 c0 -8 279 -188 390 -252 694 -399 1444 -576 2260 -533
251 13 476 36 870 90 421 58 528 70 713 77 183 7 228 23 64 23 -143 0 -376
-24 -752 -76 -916 -127 -1388 -132 -1951 -19 -518 105 -1005 313 -1483 635
-82 54 -111 69 -111 55z"/>
<path d="M6048 5224 c13 -9 87 -54 164 -100 809 -482 1641 -654 2650 -549 178
19 303 35 638 86 320 48 581 79 672 79 45 0 68 4 68 12 0 8 -33 9 -122 5 -134
-7 -279 -25 -728 -92 -513 -76 -728 -95 -1086 -96 -308 0 -496 16 -749 62
-482 88 -972 281 -1403 551 -51 32 -101 58 -110 58 -13 0 -12 -3 6 -16z"/>
<path d="M6285 5208 c28 -17 118 -66 200 -109 482 -250 966 -392 1500 -439
157 -14 575 -14 740 -1 257 22 449 48 930 126 154 25 349 53 433 62 83 10 152
21 152 25 0 20 -197 -3 -645 -76 -632 -103 -761 -116 -1151 -123 -340 -6 -476
2 -741 43 -448 69 -909 229 -1317 457 -121 68 -192 93 -101 35z"/>
<path d="M6575 5178 c327 -166 660 -282 1009 -353 304 -61 409 -70 811 -70
449 0 625 18 1244 126 157 28 355 60 440 73 85 12 156 27 158 33 2 5 -10 8
-29 6 -96 -12 -205 -29 -518 -83 -714 -123 -934 -145 -1380 -137 -379 7 -547
28 -878 107 -276 67 -582 179 -842 310 -55 28 -108 50 -117 49 -10 0 36 -27
102 -61z"/>
<path d="M6798 5194 c211 -99 520 -201 788 -259 274 -59 433 -76 762 -82 471
-9 726 19 1465 156 144 27 299 55 345 62 45 7 82 16 82 21 0 15 -47 8 -397
-56 -786 -146 -919 -161 -1413 -161 -279 1 -383 4 -485 18 -384 52 -727 144
-1064 286 -166 70 -220 80 -83 15z"/>
<path d="M6980 5236 c0 -2 57 -24 128 -49 472 -169 867 -237 1372 -237 446 0
737 36 1504 189 136 28 251 52 254 55 17 18 -35 10 -333 -49 -704 -140 -988
-175 -1425 -175 -495 0 -899 69 -1350 230 -101 36 -150 48 -150 36z"/>
<path d="M7300 5237 c12 -13 269 -80 425 -112 493 -99 990 -105 1574 -19 106
15 512 92 626 118 57 13 58 14 20 15 -22 1 -119 -15 -215 -34 -402 -82 -704
-122 -1013 -134 -430 -17 -799 20 -1183 120 -150 39 -245 58 -234 46z"/>
<path d="M7820 5215 c464 -93 997 -94 1565 -3 105 17 129 24 97 26 -24 2 -87
-4 -140 -12 -496 -78 -967 -82 -1410 -11 -195 32 -270 31 -112 0z"/>
<path d="M6 4460 c13 -367 123 -955 276 -1465 305 -1022 799 -1953 1392 -2619
121 -137 358 -376 372 -376 7 0 -45 57 -115 127 -469 472 -815 959 -1131 1593
-416 835 -690 1759 -774 2615 -24 246 -25 248 -20 125z"/>
<path d="M1 3785 c-2 -66 90 -484 164 -745 296 -1050 775 -1993 1362 -2682
147 -171 324 -358 341 -358 8 0 -42 58 -111 129 -657 679 -1179 1613 -1523
2724 -77 248 -153 551 -199 791 -19 94 -34 158 -34 141z"/>
<path d="M1 3305 c-2 -51 96 -407 196 -710 268 -814 610 -1492 1046 -2074 156
-209 437 -533 450 -521 3 3 -37 53 -90 110 -504 555 -891 1187 -1207 1972
-130 322 -271 756 -360 1108 -19 74 -35 126 -35 115z"/>
<path d="M1 2906 c-1 -22 80 -297 142 -481 311 -920 721 -1667 1262 -2302 58
-68 110 -123 117 -123 6 0 3 10 -8 22 -375 426 -630 797 -897 1308 -202 388
-411 912 -547 1370 -65 221 -68 230 -69 206z"/>
<path d="M1 2548 c-1 -10 26 -99 59 -199 285 -856 676 -1596 1155 -2188 127
-156 135 -165 141 -158 3 3 -38 58 -92 124 -418 507 -754 1090 -1027 1778 -66
167 -100 261 -210 585 -14 41 -26 67 -26 58z"/>
<path d="M0 2219 c0 -35 118 -355 227 -612 232 -549 532 -1062 880 -1508 69
-88 93 -112 93 -93 0 3 -35 49 -78 102 -427 531 -778 1180 -1058 1952 -35 96
-63 168 -64 159z"/>
<path d="M0 1897 c0 -26 144 -382 240 -592 201 -439 497 -934 750 -1253 73
-93 55 -48 -23 55 -207 274 -412 604 -583 938 -132 258 -176 354 -295 650 -49
121 -89 212 -89 202z"/>
<path d="M0 1598 c0 -29 147 -365 260 -593 159 -319 334 -612 535 -895 80
-112 83 -115 91 -108 3 4 -21 42 -55 86 -245 323 -536 839 -741 1317 -49 116
-90 202 -90 193z"/>
<path d="M0 1311 c0 -33 182 -415 302 -636 132 -241 408 -675 430 -675 11 0
15 -7 -98 160 -199 293 -406 665 -554 995 -76 168 -80 176 -80 156z"/>
<path d="M0 1037 c0 -22 150 -328 236 -482 86 -154 201 -346 277 -460 71 -106
66 -100 72 -93 3 3 -36 70 -88 149 -137 208 -264 433 -388 683 -60 121 -109
212 -109 203z"/>
<path d="M0 771 c-1 -46 413 -771 441 -771 12 0 9 4 -41 80 -87 131 -262 436
-373 655 -15 28 -26 44 -27 36z"/>
<path d="M0 522 c0 -35 284 -532 297 -518 3 2 -31 64 -75 138 -44 73 -112 191
-151 263 -39 72 -71 124 -71 117z"/>
<path d="M0 273 c0 -21 149 -277 157 -270 4 5 -131 251 -149 272 -5 5 -8 5 -8
-2z"/>
<path d="M0 28 c0 -9 5 -20 11 -23 17 -11 20 0 4 21 -13 17 -14 17 -15 2z"/>
</g>
</svg>
