<?xml version="1.0" standalone="no"?>
<!DOCTYPE svg PUBLIC "-//W3C//DTD SVG 20010904//EN"
 "http://www.w3.org/TR/2001/REC-SVG-20010904/DTD/svg10.dtd">
<svg version="1.0" xmlns="http://www.w3.org/2000/svg"
 width="512.000000pt" height="512.000000pt" viewBox="0 0 512.000000 512.000000"
 preserveAspectRatio="xMidYMid meet">

<g transform="translate(0.000000,512.000000) scale(0.100000,-0.100000)"
fill="#000000" stroke="none">
<path d="M510 4526 c-62 -16 -112 -48 -160 -103 -74 -85 -70 10 -70 -1495 l0
-1348 -141 0 -142 0 6 -75 c11 -144 92 -267 216 -328 l66 -32 1317 -3 1318 -2
0 -148 c0 -102 5 -164 15 -198 21 -69 79 -141 145 -178 54 -30 59 -31 200 -34
80 -1 327 1 550 6 387 7 407 9 446 29 67 35 101 70 133 135 31 61 31 62 31
224 l0 162 198 4 198 3 65 32 c124 61 205 184 216 328 l6 75 -142 0 -141 0 0
1348 c0 1178 -2 1355 -15 1400 -20 68 -96 151 -167 183 l-53 24 -2025 2
c-1579 1 -2035 -1 -2070 -11z m2109 -112 c12 -15 21 -37 21 -49 0 -12 -9 -34
-21 -49 -16 -20 -29 -26 -59 -26 -30 0 -43 6 -59 26 -12 15 -21 37 -21 49 0
12 9 34 21 49 16 20 29 26 59 26 30 0 43 -6 59 -26z m1981 -1454 l0 -1220 -80
0 -79 0 -3 613 -3 612 -27 47 c-37 62 -98 112 -161 132 -47 15 -112 16 -583
14 -515 -3 -530 -4 -575 -24 -55 -26 -111 -79 -141 -137 l-23 -42 -3 -607 -3
-608 -1199 0 -1200 0 0 1220 0 1220 2040 0 2040 0 0 -1220z m-1180 50 c21 -21
26 -69 10 -99 -5 -10 -23 -24 -39 -31 -82 -33 -145 84 -74 138 26 19 80 15
103 -8z m397 -10 c29 -27 37 -56 23 -89 -17 -41 -49 -51 -166 -51 -98 0 -107
2 -129 25 -16 15 -25 36 -25 55 0 19 9 40 25 55 23 24 30 25 138 25 99 0 116
-3 134 -20z m451 -272 c17 -17 17 -1719 0 -1736 -17 -17 -1159 -17 -1176 0
-17 17 -17 1719 0 1736 17 17 1159 17 1176 0z m-532 -1824 c42 -20 64 -59 64
-111 0 -70 -60 -120 -132 -110 -121 16 -141 181 -28 226 36 14 58 13 96 -5z"/>
</g>
</svg>
