<?xml version="1.0" standalone="no"?>
<svg xmlns:xlink="http://www.w3.org/1999/xlink" id="wave" style="transform:rotate(0deg); transition: 0.3s" viewBox="0 0 1440 490" version="1.1" xmlns="http://www.w3.org/2000/svg"><defs><linearGradient id="sw-gradient-0" x1="0" x2="0" y1="1" y2="0"><stop stop-color="rgba(120.649, 82.871, 255, 1)" offset="0%"/><stop stop-color="rgba(223.638, 211, 255, 1)" offset="100%"/></linearGradient></defs><path style="transform:translate(0, 0px); opacity:1" fill="url(#sw-gradient-0)" d="M0,294L80,269.5C160,245,320,196,480,212.3C640,229,800,310,960,310.3C1120,310,1280,229,1440,196C1600,163,1760,180,1920,155.2C2080,131,2240,65,2400,65.3C2560,65,2720,131,2880,155.2C3040,180,3200,163,3360,155.2C3520,147,3680,147,3840,155.2C4000,163,4160,180,4320,204.2C4480,229,4640,261,4800,228.7C4960,196,5120,98,5280,57.2C5440,16,5600,33,5760,49C5920,65,6080,82,6240,114.3C6400,147,6560,196,6720,212.3C6880,229,7040,212,7200,171.5C7360,131,7520,65,7680,81.7C7840,98,8000,196,8160,204.2C8320,212,8480,131,8640,98C8800,65,8960,82,9120,130.7C9280,180,9440,261,9600,245C9760,229,9920,114,10080,65.3C10240,16,10400,33,10560,89.8C10720,147,10880,245,11040,285.8C11200,327,11360,310,11440,302.2L11520,294L11520,490L11440,490C11360,490,11200,490,11040,490C10880,490,10720,490,10560,490C10400,490,10240,490,10080,490C9920,490,9760,490,9600,490C9440,490,9280,490,9120,490C8960,490,8800,490,8640,490C8480,490,8320,490,8160,490C8000,490,7840,490,7680,490C7520,490,7360,490,7200,490C7040,490,6880,490,6720,490C6560,490,6400,490,6240,490C6080,490,5920,490,5760,490C5600,490,5440,490,5280,490C5120,490,4960,490,4800,490C4640,490,4480,490,4320,490C4160,490,4000,490,3840,490C3680,490,3520,490,3360,490C3200,490,3040,490,2880,490C2720,490,2560,490,2400,490C2240,490,2080,490,1920,490C1760,490,1600,490,1440,490C1280,490,1120,490,960,490C800,490,640,490,480,490C320,490,160,490,80,490L0,490Z"/><defs><linearGradient id="sw-gradient-1" x1="0" x2="0" y1="1" y2="0"><stop stop-color="rgba(91.866, 37.195, 166.526, 1)" offset="0%"/><stop stop-color="rgba(138.731, 132.195, 161.972, 1)" offset="100%"/></linearGradient></defs><path style="transform:translate(0, 50px); opacity:0.9" fill="url(#sw-gradient-1)" d="M0,49L80,89.8C160,131,320,212,480,212.3C640,212,800,131,960,89.8C1120,49,1280,49,1440,114.3C1600,180,1760,310,1920,343C2080,376,2240,310,2400,285.8C2560,261,2720,278,2880,285.8C3040,294,3200,294,3360,318.5C3520,343,3680,392,3840,359.3C4000,327,4160,212,4320,155.2C4480,98,4640,98,4800,155.2C4960,212,5120,327,5280,359.3C5440,392,5600,343,5760,302.2C5920,261,6080,229,6240,204.2C6400,180,6560,163,6720,187.8C6880,212,7040,278,7200,302.2C7360,327,7520,310,7680,326.7C7840,343,8000,392,8160,400.2C8320,408,8480,376,8640,359.3C8800,343,8960,343,9120,343C9280,343,9440,343,9600,326.7C9760,310,9920,278,10080,228.7C10240,180,10400,114,10560,73.5C10720,33,10880,16,11040,57.2C11200,98,11360,196,11440,245L11520,294L11520,490L11440,490C11360,490,11200,490,11040,490C10880,490,10720,490,10560,490C10400,490,10240,490,10080,490C9920,490,9760,490,9600,490C9440,490,9280,490,9120,490C8960,490,8800,490,8640,490C8480,490,8320,490,8160,490C8000,490,7840,490,7680,490C7520,490,7360,490,7200,490C7040,490,6880,490,6720,490C6560,490,6400,490,6240,490C6080,490,5920,490,5760,490C5600,490,5440,490,5280,490C5120,490,4960,490,4800,490C4640,490,4480,490,4320,490C4160,490,4000,490,3840,490C3680,490,3520,490,3360,490C3200,490,3040,490,2880,490C2720,490,2560,490,2400,490C2240,490,2080,490,1920,490C1760,490,1600,490,1440,490C1280,490,1120,490,960,490C800,490,640,490,480,490C320,490,160,490,80,490L0,490Z"/><defs><linearGradient id="sw-gradient-2" x1="0" x2="0" y1="1" y2="0"><stop stop-color="rgba(129.146, 127.741, 214.338, 1)" offset="0%"/><stop stop-color="rgba(73.349, 35.129, 125.543, 1)" offset="100%"/></linearGradient></defs><path style="transform:translate(0, 100px); opacity:0.8" fill="url(#sw-gradient-2)" d="M0,0L80,73.5C160,147,320,294,480,310.3C640,327,800,212,960,147C1120,82,1280,65,1440,106.2C1600,147,1760,245,1920,253.2C2080,261,2240,180,2400,171.5C2560,163,2720,229,2880,212.3C3040,196,3200,98,3360,81.7C3520,65,3680,131,3840,138.8C4000,147,4160,98,4320,73.5C4480,49,4640,49,4800,40.8C4960,33,5120,16,5280,8.2C5440,0,5600,0,5760,24.5C5920,49,6080,98,6240,130.7C6400,163,6560,180,6720,228.7C6880,278,7040,359,7200,383.8C7360,408,7520,376,7680,375.7C7840,376,8000,408,8160,424.7C8320,441,8480,441,8640,367.5C8800,294,8960,147,9120,98C9280,49,9440,98,9600,138.8C9760,180,9920,212,10080,228.7C10240,245,10400,245,10560,212.3C10720,180,10880,114,11040,89.8C11200,65,11360,82,11440,89.8L11520,98L11520,490L11440,490C11360,490,11200,490,11040,490C10880,490,10720,490,10560,490C10400,490,10240,490,10080,490C9920,490,9760,490,9600,490C9440,490,9280,490,9120,490C8960,490,8800,490,8640,490C8480,490,8320,490,8160,490C8000,490,7840,490,7680,490C7520,490,7360,490,7200,490C7040,490,6880,490,6720,490C6560,490,6400,490,6240,490C6080,490,5920,490,5760,490C5600,490,5440,490,5280,490C5120,490,4960,490,4800,490C4640,490,4480,490,4320,490C4160,490,4000,490,3840,490C3680,490,3520,490,3360,490C3200,490,3040,490,2880,490C2720,490,2560,490,2400,490C2240,490,2080,490,1920,490C1760,490,1600,490,1440,490C1280,490,1120,490,960,490C800,490,640,490,480,490C320,490,160,490,80,490L0,490Z"/></svg>