<?xml version="1.0" standalone="no"?>
<svg xmlns:xlink="http://www.w3.org/1999/xlink" id="wave" style="transform:rotate(0deg); transition: 0.3s" viewBox="0 0 1440 490" version="1.1" xmlns="http://www.w3.org/2000/svg"><defs><linearGradient id="sw-gradient-0" x1="0" x2="0" y1="1" y2="0"><stop stop-color="rgba(108.988, 255, 82.871, 1)" offset="0%"/><stop stop-color="rgba(219.167, 255, 211, 1)" offset="100%"/></linearGradient></defs><path style="transform:translate(0, 0px); opacity:1" fill="url(#sw-gradient-0)" d="M0,441L80,441C160,441,320,441,480,441C640,441,800,441,960,367.5C1120,294,1280,147,1440,122.5C1600,98,1760,196,1920,245C2080,294,2240,294,2400,318.5C2560,343,2720,392,2880,359.3C3040,327,3200,212,3360,163.3C3520,114,3680,131,3840,147C4000,163,4160,180,4320,155.2C4480,131,4640,65,4800,81.7C4960,98,5120,196,5280,269.5C5440,343,5600,392,5760,343C5920,294,6080,147,6240,106.2C6400,65,6560,131,6720,196C6880,261,7040,327,7200,294C7360,261,7520,131,7680,73.5C7840,16,8000,33,8160,89.8C8320,147,8480,245,8640,285.8C8800,327,8960,310,9120,285.8C9280,261,9440,229,9600,245C9760,261,9920,327,10080,359.3C10240,392,10400,392,10560,375.7C10720,359,10880,327,11040,302.2C11200,278,11360,261,11440,253.2L11520,245L11520,490L11440,490C11360,490,11200,490,11040,490C10880,490,10720,490,10560,490C10400,490,10240,490,10080,490C9920,490,9760,490,9600,490C9440,490,9280,490,9120,490C8960,490,8800,490,8640,490C8480,490,8320,490,8160,490C8000,490,7840,490,7680,490C7520,490,7360,490,7200,490C7040,490,6880,490,6720,490C6560,490,6400,490,6240,490C6080,490,5920,490,5760,490C5600,490,5440,490,5280,490C5120,490,4960,490,4800,490C4640,490,4480,490,4320,490C4160,490,4000,490,3840,490C3680,490,3520,490,3360,490C3200,490,3040,490,2880,490C2720,490,2560,490,2400,490C2240,490,2080,490,1920,490C1760,490,1600,490,1440,490C1280,490,1120,490,960,490C800,490,640,490,480,490C320,490,160,490,80,490L0,490Z"/><defs><linearGradient id="sw-gradient-1" x1="0" x2="0" y1="1" y2="0"><stop stop-color="rgba(52.437, 166.526, 37.195, 1)" offset="0%"/><stop stop-color="rgba(132.195, 161.972, 133.729, 1)" offset="100%"/></linearGradient></defs><path style="transform:translate(0, 50px); opacity:0.9" fill="url(#sw-gradient-1)" d="M0,196L80,220.5C160,245,320,294,480,269.5C640,245,800,147,960,163.3C1120,180,1280,310,1440,318.5C1600,327,1760,212,1920,204.2C2080,196,2240,294,2400,285.8C2560,278,2720,163,2880,106.2C3040,49,3200,49,3360,65.3C3520,82,3680,114,3840,122.5C4000,131,4160,114,4320,138.8C4480,163,4640,229,4800,228.7C4960,229,5120,163,5280,187.8C5440,212,5600,327,5760,318.5C5920,310,6080,180,6240,122.5C6400,65,6560,82,6720,98C6880,114,7040,131,7200,155.2C7360,180,7520,212,7680,236.8C7840,261,8000,278,8160,253.2C8320,229,8480,163,8640,130.7C8800,98,8960,98,9120,147C9280,196,9440,294,9600,277.7C9760,261,9920,131,10080,73.5C10240,16,10400,33,10560,32.7C10720,33,10880,16,11040,65.3C11200,114,11360,229,11440,285.8L11520,343L11520,490L11440,490C11360,490,11200,490,11040,490C10880,490,10720,490,10560,490C10400,490,10240,490,10080,490C9920,490,9760,490,9600,490C9440,490,9280,490,9120,490C8960,490,8800,490,8640,490C8480,490,8320,490,8160,490C8000,490,7840,490,7680,490C7520,490,7360,490,7200,490C7040,490,6880,490,6720,490C6560,490,6400,490,6240,490C6080,490,5920,490,5760,490C5600,490,5440,490,5280,490C5120,490,4960,490,4800,490C4640,490,4480,490,4320,490C4160,490,4000,490,3840,490C3680,490,3520,490,3360,490C3200,490,3040,490,2880,490C2720,490,2560,490,2400,490C2240,490,2080,490,1920,490C1760,490,1600,490,1440,490C1280,490,1120,490,960,490C800,490,640,490,480,490C320,490,160,490,80,490L0,490Z"/><defs><linearGradient id="sw-gradient-2" x1="0" x2="0" y1="1" y2="0"><stop stop-color="rgba(173.148, 214.338, 127.741, 1)" offset="0%"/><stop stop-color="rgba(127.137, 212.061, 19.829, 1)" offset="100%"/></linearGradient></defs><path style="transform:translate(0, 100px); opacity:0.8" fill="url(#sw-gradient-2)" d="M0,392L80,351.2C160,310,320,229,480,220.5C640,212,800,278,960,277.7C1120,278,1280,212,1440,212.3C1600,212,1760,278,1920,302.2C2080,327,2240,310,2400,326.7C2560,343,2720,392,2880,367.5C3040,343,3200,245,3360,236.8C3520,229,3680,310,3840,343C4000,376,4160,359,4320,367.5C4480,376,4640,408,4800,375.7C4960,343,5120,245,5280,204.2C5440,163,5600,180,5760,179.7C5920,180,6080,163,6240,204.2C6400,245,6560,343,6720,367.5C6880,392,7040,343,7200,334.8C7360,327,7520,359,7680,359.3C7840,359,8000,327,8160,318.5C8320,310,8480,327,8640,302.2C8800,278,8960,212,9120,228.7C9280,245,9440,343,9600,326.7C9760,310,9920,180,10080,155.2C10240,131,10400,212,10560,277.7C10720,343,10880,392,11040,375.7C11200,359,11360,278,11440,236.8L11520,196L11520,490L11440,490C11360,490,11200,490,11040,490C10880,490,10720,490,10560,490C10400,490,10240,490,10080,490C9920,490,9760,490,9600,490C9440,490,9280,490,9120,490C8960,490,8800,490,8640,490C8480,490,8320,490,8160,490C8000,490,7840,490,7680,490C7520,490,7360,490,7200,490C7040,490,6880,490,6720,490C6560,490,6400,490,6240,490C6080,490,5920,490,5760,490C5600,490,5440,490,5280,490C5120,490,4960,490,4800,490C4640,490,4480,490,4320,490C4160,490,4000,490,3840,490C3680,490,3520,490,3360,490C3200,490,3040,490,2880,490C2720,490,2560,490,2400,490C2240,490,2080,490,1920,490C1760,490,1600,490,1440,490C1280,490,1120,490,960,490C800,490,640,490,480,490C320,490,160,490,80,490L0,490Z"/></svg>